<svg xmlns="http://www.w3.org/2000/svg" viewBox="0 0 100 100" fill="#fff"><path d="M98.3 39.1v31.5c0 5-3.6 9.2-8.3 10.2v9.3c0 2.2-1.8 3.9-3.9 3.9-1 0-2-.4-2.8-1.1L71.5 81.1H35.8c-5.6 0-10.1-4.4-10.4-9.8l6-6h1.2v5.4c0 1.7 1.4 3.2 3.2 3.2h38.7l8.2 8.2v-8.2h5.2c1.7 0 3.2-1.4 3.2-3.2V39.1c0-1.7-1.4-3.2-3.2-3.2h-6.3v-7.3h6.3c5.7.1 10.4 4.8 10.4 10.5zM1.7 47.9V16.4C1.7 10.6 6.4 6 12.1 6h52c5.8 0 10.4 4.7 10.4 10.4v31.5c0 5.8-4.7 10.4-10.4 10.4H28.5L16.7 70.2c-.7.7-1.7 1.1-2.7 1.1s-1.9-.4-2.7-1.1-1.2-1.8-1.2-2.9V58c-4.8-.9-8.4-5.1-8.4-10.1z"/></svg>