<?xml version="1.0" encoding="utf-8"?>
<!-- Generator: Adobe Illustrator 26.0.2, SVG Export Plug-In . SVG Version: 6.00 Build 0)  -->
<svg version="1.1" id="Layer_1" xmlns="http://www.w3.org/2000/svg" xmlns:xlink="http://www.w3.org/1999/xlink" x="0px" y="0px"
	 viewBox="0 0 172 173.4" style="enable-background:new 0 0 172 173.4;" xml:space="preserve">
<style type="text/css">
	.st0{fill:none;stroke:#B5AEAE;stroke-width:5;stroke-linecap:round;stroke-linejoin:round;}
	.st1{fill:none;stroke:#670D35;stroke-width:5;stroke-linecap:round;stroke-linejoin:round;}
	.st2{fill:none;stroke:#E6007A;stroke-width:5;stroke-linecap:round;stroke-linejoin:round;}
	.st3{fill:#E6007A;}
</style>
<path class="st0" d="M136.3,151.7c-16.2,12.7-36.4,18.9-56.9,17.4c-20.4-1.5-39.6-10.5-53.7-25.4s-22.1-34.5-22.6-55
	c-0.4-20.5,6.8-40.5,20.2-56C36.9,17.2,55.6,7.2,76,4.8c20.3-2.5,40.9,2.8,57.5,14.6C150.2,31.3,161.8,49,166.2,69
	c4.3,20,1.1,41-9.2,58.8"/>
<path class="st1" d="M58.7,133c0-15,1.2-51.6,40-68"/>
<path class="st2" d="M52.2,100c-4.8-18.2,2.3-55,69.5-57c1,20.2-7.3,61.6-48.5,66"/>
<circle class="st3" cx="156.5" cy="128.5" r="2.5"/>
</svg>
