<svg xmlns="http://www.w3.org/2000/svg" viewBox="0 0 169.69 169.69"><defs><style>.cls-1,.cls-2{fill:#fff;}.cls-1{stroke:#670d35;}.cls-1,.cls-2,.cls-3{stroke-linecap:round;stroke-linejoin:round;stroke-width:5px;}.cls-2{stroke:#e6007a;}.cls-3{fill:none;stroke:#b5aeae;}</style></defs><title>dg-security-model</title><g id="Layer_2" data-name="Layer 2"><g id="Layer_1-2" data-name="Layer 1"><path class="cls-1" d="M134.18,39.42H35.51V95.87c0,35.27,49.33,56.27,49.33,56.27s49.34-21,49.34-56.27V53.6"/><path class="cls-2" d="M63.44,62.19h49.2V94c0,19.87-27.8,31.7-27.8,31.7S57.05,113.86,57.05,94V68.07"/><path class="cls-2" d="M67.39,79.45H48.57v11.4C48.57,98,58,102.22,58,102.22S67.39,98,67.39,90.85Z"/><path class="cls-2" d="M121.12,79.45v11.4c0,7.13-9.41,11.37-9.41,11.37s-9.42-4.24-9.42-11.37V79.45Z"/><path class="cls-2" d="M94.26,107.47v11.4c0,7.13-9.42,11.37-9.42,11.37s-9.41-4.24-9.41-11.37v-11.4Z"/><path class="cls-2" d="M94.26,52.88V64.29c0,7.12-9.42,11.37-9.42,11.37s-9.41-4.25-9.41-11.37V52.88Z"/><line class="cls-3" x1="57.05" y1="68.07" x2="57.05" y2="68.07"/><line class="cls-2" x1="134.18" y1="53.61" x2="134.18" y2="53.61"/><path class="cls-3" d="M53.86,161.16a82.62,82.62,0,1,1,31,6"/><line class="cls-2" x1="84.85" y1="167.19" x2="84.85" y2="167.19"/></g></g></svg>