<svg viewBox="0 0 281 197" fill="none" xmlns="http://www.w3.org/2000/svg">
<path d="M131.4 58.3001H47.4999C37.7999 58.3001 29.8999 50.4001 29.8999 40.7001C29.8999 31.0001 37.7999 23.1001 47.4999 23.1001H131.4C141.1 23.1001 149 31.0001 149 40.7001C149 45.3001 147.3 49.7001 144 53.1001C140.6 56.4001 136.2 58.3001 131.4 58.3001ZM47.4999 24.1001C38.2999 24.1001 30.8999 31.5001 30.8999 40.7001C30.8999 49.9001 38.2999 57.3001 47.4999 57.3001H131.4C135.9 57.3001 140.1 55.5001 143.3 52.4001C146.4 49.3001 148.1 45.1001 148 40.7001C148 31.5001 140.6 24.1001 131.4 24.1001H47.4999Z" fill="#1E1E1E"/>
<path d="M244.6 173.3H34.2998C31.7998 173.3 29.7998 171.3 29.7998 168.8V142.5C29.7998 140 31.7998 138 34.2998 138H244.6C247.1 138 249.1 140 249.1 142.5V168.8C249.1 171.3 247.1 173.3 244.6 173.3ZM34.2998 139C32.3998 139 30.7998 140.6 30.7998 142.5V168.8C30.7998 170.7 32.3998 172.3 34.2998 172.3H244.6C246.5 172.3 248.1 170.7 248.1 168.8V142.5C248.1 140.6 246.5 139 244.6 139H34.2998Z" fill="#1E1E1E"/>
<path d="M244.6 134.4H34.2998C31.7998 134.4 29.7998 132.4 29.7998 129.9V66.2998C29.7998 63.7998 31.7998 61.7998 34.2998 61.7998H244.6C247.1 61.7998 249.1 63.7998 249.1 66.2998V129.9C249.1 132.4 247.1 134.4 244.6 134.4ZM34.2998 62.7998C32.3998 62.7998 30.7998 64.3998 30.7998 66.2998V129.9C30.7998 131.8 32.3998 133.4 34.2998 133.4H244.6C246.6 133.4 248.1 131.9 248.1 129.9V66.2998C248.1 64.3998 246.5 62.7998 244.6 62.7998H34.2998Z" fill="#1E1E1E"/>
<path d="M111.8 134.4H34.2998C31.7998 134.4 29.7998 132.4 29.7998 129.9V103.6C29.7998 101.1 31.7998 99.0996 34.2998 99.0996H111.8C114.3 99.0996 116.3 101.1 116.3 103.6V129.9C116.3 132.4 114.3 134.4 111.8 134.4ZM34.2998 100.1C32.3998 100.1 30.7998 101.7 30.7998 103.6V129.9C30.7998 131.8 32.3998 133.4 34.2998 133.4H111.8C113.8 133.4 115.3 131.9 115.3 129.9V103.6C115.3 101.7 113.7 100.1 111.8 100.1H34.2998V100.1Z" fill="#1E1E1E"/>
<path d="M244.6 134.4H167.1C164.6 134.4 162.6 132.4 162.6 129.9V103.6C162.6 101.1 164.6 99.0996 167.1 99.0996H244.6C247.1 99.0996 249.1 101.1 249.1 103.6V129.9C249.1 132.4 247.1 134.4 244.6 134.4ZM167.1 100.1C165.2 100.1 163.6 101.7 163.6 103.6V129.9C163.6 131.8 165.2 133.4 167.1 133.4H244.6C246.6 133.4 248.1 131.9 248.1 129.9V103.6C248.1 101.7 246.5 100.1 244.6 100.1H167.1V100.1Z" fill="#1E1E1E"/>
<path d="M47.0568 45V36.2727H50.0057C50.6903 36.2727 51.25 36.3963 51.6847 36.6435C52.1222 36.8878 52.446 37.2188 52.6562 37.6364C52.8665 38.054 52.9716 38.5199 52.9716 39.0341C52.9716 39.5483 52.8665 40.0156 52.6562 40.4361C52.4489 40.8565 52.1278 41.1918 51.6932 41.4418C51.2585 41.6889 50.7017 41.8125 50.0227 41.8125H47.9091V40.875H49.9886C50.4574 40.875 50.8338 40.794 51.1179 40.6321C51.402 40.4702 51.608 40.2514 51.7358 39.9759C51.8665 39.6974 51.9318 39.3835 51.9318 39.0341C51.9318 38.6847 51.8665 38.3722 51.7358 38.0966C51.608 37.821 51.4006 37.6051 51.1136 37.4489C50.8267 37.2898 50.446 37.2102 49.9716 37.2102H48.1136V45H47.0568ZM57.1264 45.1364C56.5355 45.1364 56.017 44.9957 55.571 44.7145C55.1278 44.4332 54.7812 44.0398 54.5312 43.5341C54.2841 43.0284 54.1605 42.4375 54.1605 41.7614C54.1605 41.0795 54.2841 40.4844 54.5312 39.9759C54.7812 39.4673 55.1278 39.0724 55.571 38.7912C56.017 38.5099 56.5355 38.3693 57.1264 38.3693C57.7173 38.3693 58.2344 38.5099 58.6776 38.7912C59.1236 39.0724 59.4702 39.4673 59.7173 39.9759C59.9673 40.4844 60.0923 41.0795 60.0923 41.7614C60.0923 42.4375 59.9673 43.0284 59.7173 43.5341C59.4702 44.0398 59.1236 44.4332 58.6776 44.7145C58.2344 44.9957 57.7173 45.1364 57.1264 45.1364ZM57.1264 44.233C57.5753 44.233 57.9446 44.1179 58.2344 43.8878C58.5241 43.6577 58.7386 43.3551 58.8778 42.9801C59.017 42.6051 59.0866 42.1989 59.0866 41.7614C59.0866 41.3239 59.017 40.9162 58.8778 40.5384C58.7386 40.1605 58.5241 39.8551 58.2344 39.6222C57.9446 39.3892 57.5753 39.2727 57.1264 39.2727C56.6776 39.2727 56.3082 39.3892 56.0185 39.6222C55.7287 39.8551 55.5142 40.1605 55.375 40.5384C55.2358 40.9162 55.1662 41.3239 55.1662 41.7614C55.1662 42.1989 55.2358 42.6051 55.375 42.9801C55.5142 43.3551 55.7287 43.6577 56.0185 43.8878C56.3082 44.1179 56.6776 44.233 57.1264 44.233ZM62.6332 36.2727V45H61.6275V36.2727H62.6332ZM65.4126 42.6136L65.3956 41.3693H65.6001L68.4638 38.4545H69.7081L66.657 41.5398H66.5717L65.4126 42.6136ZM64.4751 45V36.2727H65.4808V45H64.4751ZM68.6342 45L66.0774 41.7614L66.7933 41.0625L69.9126 45H68.6342ZM72.9286 45.1534C72.5138 45.1534 72.1374 45.0753 71.7994 44.919C71.4613 44.7599 71.1928 44.5312 70.994 44.233C70.7951 43.9318 70.6957 43.5682 70.6957 43.142C70.6957 42.767 70.7695 42.4631 70.9173 42.2301C71.065 41.9943 71.2624 41.8097 71.5096 41.6761C71.7567 41.5426 72.0295 41.4432 72.3278 41.3778C72.6289 41.3097 72.9315 41.2557 73.2354 41.2159C73.6332 41.1648 73.9556 41.1264 74.2028 41.1009C74.4528 41.0724 74.6346 41.0256 74.7482 40.9602C74.8647 40.8949 74.9229 40.7812 74.9229 40.6193V40.5852C74.9229 40.1648 74.8079 39.8381 74.5778 39.6051C74.3505 39.3722 74.0053 39.2557 73.5423 39.2557C73.0621 39.2557 72.6857 39.3608 72.413 39.571C72.1403 39.7812 71.9485 40.0057 71.8377 40.2443L70.8832 39.9034C71.0536 39.5057 71.2809 39.196 71.565 38.9744C71.8519 38.75 72.1644 38.5937 72.5025 38.5057C72.8434 38.4148 73.1786 38.3693 73.5082 38.3693C73.7184 38.3693 73.9599 38.3949 74.2326 38.446C74.5082 38.4943 74.7738 38.5952 75.0295 38.7486C75.288 38.902 75.5025 39.1335 75.6729 39.4432C75.8434 39.7528 75.9286 40.1676 75.9286 40.6875V45H74.9229V44.1136H74.8718C74.8036 44.2557 74.69 44.4077 74.5309 44.5696C74.3718 44.7315 74.1602 44.8693 73.896 44.983C73.6317 45.0966 73.3093 45.1534 72.9286 45.1534ZM73.082 44.25C73.4798 44.25 73.815 44.1719 74.0877 44.0156C74.3633 43.8594 74.5707 43.6577 74.7099 43.4105C74.8519 43.1634 74.9229 42.9034 74.9229 42.6307V41.7102C74.8803 41.7614 74.7866 41.8082 74.6417 41.8509C74.4996 41.8906 74.3349 41.9261 74.1474 41.9574C73.9627 41.9858 73.7823 42.0114 73.6062 42.0341C73.4329 42.054 73.2923 42.071 73.1843 42.0852C72.9229 42.1193 72.6786 42.1747 72.4513 42.2514C72.2269 42.3253 72.0451 42.4375 71.9059 42.5881C71.7695 42.7358 71.7013 42.9375 71.7013 43.1932C71.7013 43.5426 71.8306 43.8068 72.0891 43.9858C72.3505 44.1619 72.6815 44.25 73.082 44.25ZM80.2358 45.1364C79.6903 45.1364 79.2088 44.9986 78.7912 44.723C78.3736 44.4446 78.0469 44.0526 77.8111 43.5469C77.5753 43.0384 77.4574 42.4375 77.4574 41.7443C77.4574 41.0568 77.5753 40.4602 77.8111 39.9545C78.0469 39.4489 78.375 39.0582 78.7955 38.7827C79.2159 38.5071 79.7017 38.3693 80.2528 38.3693C80.679 38.3693 81.0156 38.4403 81.2628 38.5824C81.5128 38.7216 81.7031 38.8807 81.8338 39.0597C81.9673 39.2358 82.071 39.3807 82.1449 39.4943H82.2301V36.2727H83.2358V45H82.2642V43.9943H82.1449C82.071 44.1136 81.9659 44.2642 81.8295 44.446C81.6932 44.625 81.4986 44.7855 81.2457 44.9276C80.9929 45.0668 80.6563 45.1364 80.2358 45.1364ZM80.3722 44.233C80.7756 44.233 81.1165 44.1278 81.3949 43.9176C81.6733 43.7045 81.8849 43.4105 82.0298 43.0355C82.1747 42.6577 82.2472 42.2216 82.2472 41.7273C82.2472 41.2386 82.1761 40.8111 82.0341 40.4446C81.892 40.0753 81.6818 39.7884 81.4034 39.5838C81.125 39.3764 80.7813 39.2727 80.3722 39.2727C79.946 39.2727 79.5909 39.3821 79.3068 39.6009C79.0256 39.8168 78.8139 40.1108 78.6719 40.483C78.5327 40.8523 78.4631 41.267 78.4631 41.7273C78.4631 42.1932 78.5341 42.6165 78.6761 42.9972C78.821 43.375 79.0341 43.6761 79.3153 43.9006C79.5994 44.1222 79.9517 44.233 80.3722 44.233ZM87.8764 45.1364C87.2855 45.1364 86.767 44.9957 86.321 44.7145C85.8778 44.4332 85.5312 44.0398 85.2812 43.5341C85.0341 43.0284 84.9105 42.4375 84.9105 41.7614C84.9105 41.0795 85.0341 40.4844 85.2812 39.9759C85.5312 39.4673 85.8778 39.0724 86.321 38.7912C86.767 38.5099 87.2855 38.3693 87.8764 38.3693C88.4673 38.3693 88.9844 38.5099 89.4276 38.7912C89.8736 39.0724 90.2202 39.4673 90.4673 39.9759C90.7173 40.4844 90.8423 41.0795 90.8423 41.7614C90.8423 42.4375 90.7173 43.0284 90.4673 43.5341C90.2202 44.0398 89.8736 44.4332 89.4276 44.7145C88.9844 44.9957 88.4673 45.1364 87.8764 45.1364ZM87.8764 44.233C88.3253 44.233 88.6946 44.1179 88.9844 43.8878C89.2741 43.6577 89.4886 43.3551 89.6278 42.9801C89.767 42.6051 89.8366 42.1989 89.8366 41.7614C89.8366 41.3239 89.767 40.9162 89.6278 40.5384C89.4886 40.1605 89.2741 39.8551 88.9844 39.6222C88.6946 39.3892 88.3253 39.2727 87.8764 39.2727C87.4276 39.2727 87.0582 39.3892 86.7685 39.6222C86.4787 39.8551 86.2642 40.1605 86.125 40.5384C85.9858 40.9162 85.9162 41.3239 85.9162 41.7614C85.9162 42.1989 85.9858 42.6051 86.125 42.9801C86.2642 43.3551 86.4787 43.6577 86.7685 43.8878C87.0582 44.1179 87.4276 44.233 87.8764 44.233ZM95.2241 38.4545V39.3068H91.832V38.4545H95.2241ZM92.8207 36.8864H93.8263V43.125C93.8263 43.4091 93.8675 43.6222 93.9499 43.7642C94.0352 43.9034 94.1431 43.9972 94.2738 44.0455C94.4073 44.0909 94.5479 44.1136 94.6957 44.1136C94.8065 44.1136 94.8974 44.108 94.9684 44.0966C95.0394 44.0824 95.0962 44.071 95.1388 44.0625L95.3434 44.9659C95.2752 44.9915 95.18 45.017 95.0579 45.0426C94.9357 45.071 94.7809 45.0852 94.5934 45.0852C94.3093 45.0852 94.0309 45.0241 93.7582 44.902C93.4883 44.7798 93.2638 44.5938 93.0849 44.3438C92.9087 44.0938 92.8207 43.7784 92.8207 43.3977V36.8864Z" fill="black"/>
<path d="M47.9261 112.273V121H46.9205V112.273H47.9261ZM49.7681 121V114.455H50.7738V121H49.7681ZM50.2795 113.364C50.0835 113.364 49.9144 113.297 49.7724 113.163C49.6332 113.03 49.5636 112.869 49.5636 112.682C49.5636 112.494 49.6332 112.334 49.7724 112.2C49.9144 112.067 50.0835 112 50.2795 112C50.4755 112 50.6431 112.067 50.7823 112.2C50.9244 112.334 50.9954 112.494 50.9954 112.682C50.9954 112.869 50.9244 113.03 50.7823 113.163C50.6431 113.297 50.4755 113.364 50.2795 113.364ZM52.7521 121V112.273H53.7578V115.494H53.843C53.9169 115.381 54.0192 115.236 54.1499 115.06C54.2834 114.881 54.4737 114.722 54.7209 114.582C54.9709 114.44 55.3089 114.369 55.7351 114.369C56.2862 114.369 56.772 114.507 57.1925 114.783C57.6129 115.058 57.9411 115.449 58.1768 115.955C58.4126 116.46 58.5305 117.057 58.5305 117.744C58.5305 118.438 58.4126 119.038 58.1768 119.547C57.9411 120.053 57.6143 120.445 57.1967 120.723C56.7791 120.999 56.2976 121.136 55.7521 121.136C55.3317 121.136 54.995 121.067 54.7422 120.928C54.4893 120.786 54.2947 120.625 54.1584 120.446C54.022 120.264 53.9169 120.114 53.843 119.994H53.7237V121H52.7521ZM53.7408 117.727C53.7408 118.222 53.8132 118.658 53.9581 119.036C54.103 119.411 54.3146 119.705 54.593 119.918C54.8714 120.128 55.2124 120.233 55.6158 120.233C56.0362 120.233 56.3871 120.122 56.6683 119.901C56.9524 119.676 57.1655 119.375 57.3075 118.997C57.4524 118.616 57.5249 118.193 57.5249 117.727C57.5249 117.267 57.4538 116.852 57.3118 116.483C57.1726 116.111 56.9609 115.817 56.6768 115.601C56.3956 115.382 56.0419 115.273 55.6158 115.273C55.2067 115.273 54.8629 115.376 54.5845 115.584C54.3061 115.788 54.0959 116.075 53.9538 116.445C53.8118 116.811 53.7408 117.239 53.7408 117.727ZM60.0689 123.455V114.455H61.0405V115.494H61.1598C61.2337 115.381 61.3359 115.236 61.4666 115.06C61.6001 114.881 61.7905 114.722 62.0376 114.582C62.2876 114.44 62.6257 114.369 63.0518 114.369C63.603 114.369 64.0888 114.507 64.5092 114.783C64.9297 115.058 65.2578 115.449 65.4936 115.955C65.7294 116.46 65.8473 117.057 65.8473 117.744C65.8473 118.438 65.7294 119.038 65.4936 119.547C65.2578 120.053 64.9311 120.445 64.5135 120.723C64.0959 120.999 63.6143 121.136 63.0689 121.136C62.6484 121.136 62.3118 121.067 62.0589 120.928C61.8061 120.786 61.6115 120.625 61.4751 120.446C61.3388 120.264 61.2337 120.114 61.1598 119.994H61.0746V123.455H60.0689ZM61.0575 117.727C61.0575 118.222 61.13 118.658 61.2749 119.036C61.4197 119.411 61.6314 119.705 61.9098 119.918C62.1882 120.128 62.5291 120.233 62.9325 120.233C63.353 120.233 63.7038 120.122 63.9851 119.901C64.2692 119.676 64.4822 119.375 64.6243 118.997C64.7692 118.616 64.8416 118.193 64.8416 117.727C64.8416 117.267 64.7706 116.852 64.6286 116.483C64.4893 116.111 64.2777 115.817 63.9936 115.601C63.7124 115.382 63.3587 115.273 62.9325 115.273C62.5234 115.273 62.1797 115.376 61.9013 115.584C61.6229 115.788 61.4126 116.075 61.2706 116.445C61.1286 116.811 61.0575 117.239 61.0575 117.727ZM67.3643 121V120.233L70.245 117.08C70.5831 116.71 70.8615 116.389 71.0803 116.116C71.299 115.841 71.4609 115.582 71.5661 115.341C71.674 115.097 71.728 114.841 71.728 114.574C71.728 114.267 71.6541 114.001 71.5064 113.777C71.3615 113.553 71.1626 113.379 70.9098 113.257C70.657 113.135 70.3729 113.074 70.0575 113.074C69.7223 113.074 69.4297 113.143 69.1797 113.283C68.9325 113.419 68.7408 113.611 68.6044 113.858C68.4709 114.105 68.4041 114.395 68.4041 114.727H67.3984C67.3984 114.216 67.5163 113.767 67.7521 113.381C67.9879 112.994 68.3089 112.693 68.7152 112.477C69.1243 112.261 69.5831 112.153 70.0916 112.153C70.603 112.153 71.0561 112.261 71.451 112.477C71.8459 112.693 72.1555 112.984 72.38 113.351C72.6044 113.717 72.7166 114.125 72.7166 114.574C72.7166 114.895 72.6584 115.209 72.5419 115.516C72.4283 115.82 72.2294 116.159 71.9453 116.534C71.6641 116.906 71.2734 117.361 70.7734 117.898L68.8132 119.994V120.062H72.87V121H67.3643ZM74.647 123.455V114.455H75.6186V115.494H75.7379C75.8118 115.381 75.9141 115.236 76.0447 115.06C76.1783 114.881 76.3686 114.722 76.6158 114.582C76.8658 114.44 77.2038 114.369 77.63 114.369C78.1811 114.369 78.6669 114.507 79.0874 114.783C79.5078 115.058 79.8359 115.449 80.0717 115.955C80.3075 116.46 80.4254 117.057 80.4254 117.744C80.4254 118.438 80.3075 119.038 80.0717 119.547C79.8359 120.053 79.5092 120.445 79.0916 120.723C78.674 120.999 78.1925 121.136 77.647 121.136C77.2266 121.136 76.8899 121.067 76.6371 120.928C76.3842 120.786 76.1896 120.625 76.0533 120.446C75.9169 120.264 75.8118 120.114 75.7379 119.994H75.6527V123.455H74.647ZM75.6357 117.727C75.6357 118.222 75.7081 118.658 75.853 119.036C75.9979 119.411 76.2095 119.705 76.4879 119.918C76.7663 120.128 77.1072 120.233 77.5107 120.233C77.9311 120.233 78.282 120.122 78.5632 119.901C78.8473 119.676 79.0604 119.375 79.2024 118.997C79.3473 118.616 79.4197 118.193 79.4197 117.727C79.4197 117.267 79.3487 116.852 79.2067 116.483C79.0675 116.111 78.8558 115.817 78.5717 115.601C78.2905 115.382 77.9368 115.273 77.5107 115.273C77.1016 115.273 76.7578 115.376 76.4794 115.584C76.201 115.788 75.9908 116.075 75.8487 116.445C75.7067 116.811 75.6357 117.239 75.6357 117.727Z" fill="black"/>
<path d="M47.0568 160V151.273H50.0057C50.6875 151.273 51.2472 151.389 51.6847 151.622C52.1222 151.852 52.446 152.169 52.6562 152.572C52.8665 152.976 52.9716 153.435 52.9716 153.949C52.9716 154.463 52.8665 154.919 52.6562 155.317C52.446 155.714 52.1236 156.027 51.6889 156.254C51.2543 156.479 50.6989 156.591 50.0227 156.591H47.6364V155.636H49.9886C50.4545 155.636 50.8295 155.568 51.1136 155.432C51.4006 155.295 51.608 155.102 51.7358 154.852C51.8665 154.599 51.9318 154.298 51.9318 153.949C51.9318 153.599 51.8665 153.294 51.7358 153.033C51.6051 152.771 51.3963 152.57 51.1094 152.428C50.8224 152.283 50.4432 152.21 49.9716 152.21H48.1136V160H47.0568ZM51.1648 156.08L53.3125 160H52.0852L49.9716 156.08H51.1648ZM58.7212 157.324V153.455H59.7269V160H58.7212V158.892H58.6531C58.4996 159.224 58.261 159.507 57.9371 159.74C57.6133 159.97 57.2042 160.085 56.7099 160.085C56.3008 160.085 55.9371 159.996 55.619 159.817C55.3008 159.635 55.0508 159.362 54.869 158.999C54.6871 158.632 54.5962 158.17 54.5962 157.614V153.455H55.6019V157.545C55.6019 158.023 55.7354 158.403 56.0025 158.688C56.2724 158.972 56.6161 159.114 57.0337 159.114C57.2837 159.114 57.538 159.05 57.7965 158.922C58.0579 158.794 58.2766 158.598 58.4528 158.334C58.6317 158.07 58.7212 157.733 58.7212 157.324ZM66.2053 154.92L65.3018 155.176C65.245 155.026 65.1612 154.879 65.0504 154.737C64.9425 154.592 64.7947 154.473 64.6072 154.379C64.4197 154.286 64.1797 154.239 63.8871 154.239C63.4865 154.239 63.1527 154.331 62.8857 154.516C62.6214 154.697 62.4893 154.929 62.4893 155.21C62.4893 155.46 62.5803 155.658 62.7621 155.803C62.9439 155.947 63.228 156.068 63.6143 156.165L64.5859 156.403C65.1712 156.545 65.6072 156.763 65.8942 157.055C66.1811 157.345 66.3246 157.719 66.3246 158.176C66.3246 158.551 66.2166 158.886 66.0007 159.182C65.7876 159.477 65.4893 159.71 65.1058 159.881C64.7223 160.051 64.2763 160.136 63.7678 160.136C63.1001 160.136 62.5476 159.991 62.1101 159.702C61.6726 159.412 61.3956 158.989 61.2791 158.432L62.2337 158.193C62.3246 158.545 62.4964 158.81 62.7493 158.986C63.005 159.162 63.3388 159.25 63.7507 159.25C64.2195 159.25 64.5916 159.151 64.8672 158.952C65.1456 158.75 65.2848 158.509 65.2848 158.227C65.2848 158 65.2053 157.81 65.0462 157.656C64.8871 157.5 64.6428 157.384 64.3132 157.307L63.2223 157.051C62.6229 156.909 62.1825 156.689 61.9013 156.391C61.6229 156.089 61.4837 155.713 61.4837 155.261C61.4837 154.892 61.5874 154.565 61.7947 154.281C62.005 153.997 62.2905 153.774 62.6513 153.612C63.0149 153.45 63.4268 153.369 63.8871 153.369C64.5348 153.369 65.0433 153.511 65.4126 153.795C65.7848 154.08 66.049 154.455 66.2053 154.92ZM70.685 153.455V154.307H67.293V153.455H70.685ZM68.2816 151.886H69.2873V158.125C69.2873 158.409 69.3285 158.622 69.4109 158.764C69.4961 158.903 69.604 158.997 69.7347 159.045C69.8683 159.091 70.0089 159.114 70.1566 159.114C70.2674 159.114 70.3583 159.108 70.4293 159.097C70.5004 159.082 70.5572 159.071 70.5998 159.062L70.8043 159.966C70.7362 159.991 70.641 160.017 70.5188 160.043C70.3967 160.071 70.2418 160.085 70.0543 160.085C69.7702 160.085 69.4918 160.024 69.2191 159.902C68.9492 159.78 68.7248 159.594 68.5458 159.344C68.3697 159.094 68.2816 158.778 68.2816 158.398V151.886Z" fill="black"/>
<path d="M180.403 121L178.409 114.455H179.466L180.881 119.466H180.949L182.347 114.455H183.42L184.801 119.449H184.869L186.284 114.455H187.341L185.347 121H184.358L182.926 115.972H182.824L181.392 121H180.403ZM190.597 121.153C190.182 121.153 189.805 121.075 189.467 120.919C189.129 120.76 188.861 120.531 188.662 120.233C188.463 119.932 188.364 119.568 188.364 119.142C188.364 118.767 188.438 118.463 188.585 118.23C188.733 117.994 188.93 117.81 189.178 117.676C189.425 117.543 189.697 117.443 189.996 117.378C190.297 117.31 190.599 117.256 190.903 117.216C191.301 117.165 191.624 117.126 191.871 117.101C192.121 117.072 192.303 117.026 192.416 116.96C192.533 116.895 192.591 116.781 192.591 116.619V116.585C192.591 116.165 192.476 115.838 192.246 115.605C192.018 115.372 191.673 115.256 191.21 115.256C190.73 115.256 190.354 115.361 190.081 115.571C189.808 115.781 189.616 116.006 189.506 116.244L188.551 115.903C188.722 115.506 188.949 115.196 189.233 114.974C189.52 114.75 189.832 114.594 190.17 114.506C190.511 114.415 190.847 114.369 191.176 114.369C191.386 114.369 191.628 114.395 191.901 114.446C192.176 114.494 192.442 114.595 192.697 114.749C192.956 114.902 193.17 115.134 193.341 115.443C193.511 115.753 193.597 116.168 193.597 116.688V121H192.591V120.114H192.54C192.472 120.256 192.358 120.408 192.199 120.57C192.04 120.732 191.828 120.869 191.564 120.983C191.3 121.097 190.977 121.153 190.597 121.153ZM190.75 120.25C191.148 120.25 191.483 120.172 191.756 120.016C192.031 119.859 192.239 119.658 192.378 119.411C192.52 119.163 192.591 118.903 192.591 118.631V117.71C192.548 117.761 192.455 117.808 192.31 117.851C192.168 117.891 192.003 117.926 191.815 117.957C191.631 117.986 191.45 118.011 191.274 118.034C191.101 118.054 190.96 118.071 190.852 118.085C190.591 118.119 190.347 118.175 190.119 118.251C189.895 118.325 189.713 118.437 189.574 118.588C189.438 118.736 189.369 118.937 189.369 119.193C189.369 119.543 189.499 119.807 189.757 119.986C190.018 120.162 190.349 120.25 190.75 120.25ZM200.069 115.92L199.165 116.176C199.108 116.026 199.025 115.879 198.914 115.737C198.806 115.592 198.658 115.473 198.471 115.379C198.283 115.286 198.043 115.239 197.75 115.239C197.35 115.239 197.016 115.331 196.749 115.516C196.485 115.697 196.353 115.929 196.353 116.21C196.353 116.46 196.444 116.658 196.625 116.803C196.807 116.947 197.091 117.068 197.478 117.165L198.449 117.403C199.034 117.545 199.471 117.763 199.757 118.055C200.044 118.345 200.188 118.719 200.188 119.176C200.188 119.551 200.08 119.886 199.864 120.182C199.651 120.477 199.353 120.71 198.969 120.881C198.586 121.051 198.14 121.136 197.631 121.136C196.963 121.136 196.411 120.991 195.973 120.702C195.536 120.412 195.259 119.989 195.142 119.432L196.097 119.193C196.188 119.545 196.36 119.81 196.613 119.986C196.868 120.162 197.202 120.25 197.614 120.25C198.083 120.25 198.455 120.151 198.73 119.952C199.009 119.75 199.148 119.509 199.148 119.227C199.148 119 199.069 118.81 198.909 118.656C198.75 118.5 198.506 118.384 198.176 118.307L197.086 118.051C196.486 117.909 196.046 117.689 195.765 117.391C195.486 117.089 195.347 116.713 195.347 116.261C195.347 115.892 195.451 115.565 195.658 115.281C195.868 114.997 196.154 114.774 196.515 114.612C196.878 114.45 197.29 114.369 197.75 114.369C198.398 114.369 198.907 114.511 199.276 114.795C199.648 115.08 199.912 115.455 200.069 115.92ZM201.702 121V114.455H202.673V115.477H202.759C202.895 115.128 203.115 114.857 203.419 114.663C203.723 114.467 204.088 114.369 204.514 114.369C204.946 114.369 205.305 114.467 205.592 114.663C205.882 114.857 206.108 115.128 206.27 115.477H206.338C206.506 115.139 206.757 114.871 207.092 114.672C207.428 114.47 207.83 114.369 208.298 114.369C208.884 114.369 209.362 114.553 209.734 114.919C210.107 115.283 210.293 115.849 210.293 116.619V121H209.287V116.619C209.287 116.136 209.155 115.791 208.891 115.584C208.626 115.376 208.315 115.273 207.957 115.273C207.497 115.273 207.141 115.412 206.888 115.69C206.635 115.966 206.509 116.315 206.509 116.739V121H205.486V116.517C205.486 116.145 205.365 115.845 205.124 115.618C204.882 115.388 204.571 115.273 204.19 115.273C203.929 115.273 203.685 115.342 203.457 115.482C203.233 115.621 203.051 115.814 202.912 116.061C202.776 116.305 202.707 116.588 202.707 116.909V121H201.702ZM212.131 121V114.455H213.137V121H212.131ZM212.643 113.364C212.447 113.364 212.278 113.297 212.136 113.163C211.996 113.03 211.927 112.869 211.927 112.682C211.927 112.494 211.996 112.334 212.136 112.2C212.278 112.067 212.447 112 212.643 112C212.839 112 213.006 112.067 213.146 112.2C213.288 112.334 213.359 112.494 213.359 112.682C213.359 112.869 213.288 113.03 213.146 113.163C213.006 113.297 212.839 113.364 212.643 113.364Z" fill="black"/>
<path d="M51.8295 79.4545C51.7784 79.0227 51.571 78.6875 51.2074 78.4489C50.8438 78.2102 50.3977 78.0909 49.8693 78.0909C49.483 78.0909 49.1449 78.1534 48.8551 78.2784C48.5682 78.4034 48.3438 78.5753 48.1818 78.794C48.0227 79.0128 47.9432 79.2614 47.9432 79.5398C47.9432 79.7727 47.9986 79.973 48.1094 80.1406C48.223 80.3054 48.3679 80.4432 48.544 80.554C48.7202 80.6619 48.9048 80.7514 49.098 80.8224C49.2912 80.8906 49.4688 80.946 49.6307 80.9886L50.517 81.2273C50.7443 81.2869 50.9972 81.3693 51.2756 81.4744C51.5568 81.5795 51.8253 81.723 52.081 81.9048C52.3395 82.0838 52.5526 82.3139 52.7202 82.5952C52.8878 82.8764 52.9716 83.2216 52.9716 83.6307C52.9716 84.1023 52.848 84.5284 52.6009 84.9091C52.3565 85.2898 51.9986 85.5923 51.527 85.8168C51.0582 86.0412 50.4886 86.1534 49.8182 86.1534C49.1932 86.1534 48.652 86.0526 48.1946 85.8509C47.7401 85.6491 47.3821 85.3679 47.1207 85.0071C46.8622 84.6463 46.7159 84.2273 46.6818 83.75H47.7727C47.8011 84.0795 47.9119 84.3523 48.1051 84.5682C48.3011 84.7812 48.5483 84.9403 48.8466 85.0455C49.1477 85.1477 49.4716 85.1989 49.8182 85.1989C50.2216 85.1989 50.5838 85.1335 50.9048 85.0028C51.2259 84.8693 51.4801 84.6847 51.6676 84.4489C51.8551 84.2102 51.9489 83.9318 51.9489 83.6136C51.9489 83.3239 51.8679 83.0881 51.706 82.9062C51.544 82.7244 51.331 82.5767 51.0668 82.4631C50.8026 82.3494 50.517 82.25 50.2102 82.1648L49.1364 81.858C48.4545 81.6619 47.9148 81.3821 47.517 81.0185C47.1193 80.6548 46.9205 80.179 46.9205 79.5909C46.9205 79.1023 47.0526 78.6761 47.3168 78.3125C47.5838 77.946 47.9418 77.6619 48.3906 77.4602C48.8423 77.2557 49.3466 77.1534 49.9034 77.1534C50.4659 77.1534 50.9659 77.2543 51.4034 77.456C51.8409 77.6548 52.1875 77.9276 52.4432 78.2741C52.7017 78.6207 52.8381 79.0142 52.8523 79.4545H51.8295ZM58.6978 83.3239V79.4545H59.7035V86H58.6978V84.892H58.6296C58.4762 85.2244 58.2376 85.5071 57.9137 85.7401C57.5898 85.9702 57.1808 86.0852 56.6864 86.0852C56.2773 86.0852 55.9137 85.9957 55.5955 85.8168C55.2773 85.6349 55.0273 85.3622 54.8455 84.9986C54.6637 84.6321 54.5728 84.1705 54.5728 83.6136V79.4545H55.5785V83.5455C55.5785 84.0227 55.712 84.4034 55.979 84.6875C56.2489 84.9716 56.5927 85.1136 57.0103 85.1136C57.2603 85.1136 57.5146 85.0497 57.7731 84.9219C58.0344 84.794 58.2532 84.598 58.4293 84.3338C58.6083 84.0696 58.6978 83.733 58.6978 83.3239ZM61.6818 86V77.2727H62.6875V80.4943H62.7727C62.8466 80.3807 62.9489 80.2358 63.0795 80.0597C63.2131 79.8807 63.4034 79.7216 63.6506 79.5824C63.9006 79.4403 64.2386 79.3693 64.6648 79.3693C65.2159 79.3693 65.7017 79.5071 66.1222 79.7827C66.5426 80.0582 66.8707 80.4489 67.1065 80.9545C67.3423 81.4602 67.4602 82.0568 67.4602 82.7443C67.4602 83.4375 67.3423 84.0384 67.1065 84.5469C66.8707 85.0526 66.544 85.4446 66.1264 85.723C65.7088 85.9986 65.2273 86.1364 64.6818 86.1364C64.2614 86.1364 63.9247 86.0668 63.6719 85.9276C63.419 85.7855 63.2244 85.625 63.0881 85.446C62.9517 85.2642 62.8466 85.1136 62.7727 84.9943H62.6534V86H61.6818ZM62.6705 82.7273C62.6705 83.2216 62.7429 83.6577 62.8878 84.0355C63.0327 84.4105 63.2443 84.7045 63.5227 84.9176C63.8011 85.1278 64.142 85.233 64.5455 85.233C64.9659 85.233 65.3168 85.1222 65.598 84.9006C65.8821 84.6761 66.0952 84.375 66.2372 83.9972C66.3821 83.6165 66.4545 83.1932 66.4545 82.7273C66.4545 82.267 66.3835 81.8523 66.2415 81.483C66.1023 81.1108 65.8906 80.8168 65.6065 80.6009C65.3253 80.3821 64.9716 80.2727 64.5455 80.2727C64.1364 80.2727 63.7926 80.3764 63.5142 80.5838C63.2358 80.7884 63.0256 81.0753 62.8835 81.4446C62.7415 81.8111 62.6705 82.2386 62.6705 82.7273ZM73.6349 80.9205L72.7315 81.1761C72.6747 81.0256 72.5909 80.8793 72.4801 80.7372C72.3722 80.5923 72.2244 80.473 72.0369 80.3793C71.8494 80.2855 71.6094 80.2386 71.3168 80.2386C70.9162 80.2386 70.5824 80.331 70.3153 80.5156C70.0511 80.6974 69.919 80.929 69.919 81.2102C69.919 81.4602 70.0099 81.6577 70.1918 81.8026C70.3736 81.9474 70.6577 82.0682 71.044 82.1648L72.0156 82.4034C72.6009 82.5455 73.0369 82.7628 73.3239 83.0554C73.6108 83.3452 73.7543 83.7187 73.7543 84.1761C73.7543 84.5511 73.6463 84.8864 73.4304 85.1818C73.2173 85.4773 72.919 85.7102 72.5355 85.8807C72.152 86.0511 71.706 86.1364 71.1974 86.1364C70.5298 86.1364 69.9773 85.9915 69.5398 85.7017C69.1023 85.4119 68.8253 84.9886 68.7088 84.4318L69.6634 84.1932C69.7543 84.5455 69.9261 84.8097 70.179 84.9858C70.4347 85.1619 70.7685 85.25 71.1804 85.25C71.6491 85.25 72.0213 85.1506 72.2969 84.9517C72.5753 84.75 72.7145 84.5085 72.7145 84.2273C72.7145 84 72.6349 83.8097 72.4759 83.6562C72.3168 83.5 72.0724 83.3835 71.7429 83.3068L70.652 83.0511C70.0526 82.9091 69.6122 82.6889 69.331 82.3906C69.0526 82.0895 68.9134 81.7131 68.9134 81.2614C68.9134 80.892 69.017 80.5653 69.2244 80.2812C69.4347 79.9972 69.7202 79.7741 70.081 79.6122C70.4446 79.4503 70.8565 79.3693 71.3168 79.3693C71.9645 79.3693 72.473 79.5114 72.8423 79.7955C73.2145 80.0795 73.4787 80.4545 73.6349 80.9205ZM78.1147 79.4545V80.3068H74.7227V79.4545H78.1147ZM75.7113 77.8864H76.717V84.125C76.717 84.4091 76.7582 84.6222 76.8406 84.7642C76.9258 84.9034 77.0337 84.9972 77.1644 85.0455C77.2979 85.0909 77.4386 85.1136 77.5863 85.1136C77.6971 85.1136 77.788 85.108 77.859 85.0966C77.93 85.0824 77.9869 85.071 78.0295 85.0625L78.234 85.9659C78.1658 85.9915 78.0707 86.017 77.9485 86.0426C77.8263 86.071 77.6715 86.0852 77.484 86.0852C77.1999 86.0852 76.9215 86.0241 76.6488 85.902C76.3789 85.7798 76.1545 85.5938 75.9755 85.3438C75.7994 85.0938 75.7113 84.7784 75.7113 84.3977V77.8864ZM79.6275 86V79.4545H80.5991V80.4432H80.6673C80.7866 80.1193 81.0025 79.8565 81.315 79.6548C81.6275 79.4531 81.9798 79.3523 82.3718 79.3523C82.4457 79.3523 82.538 79.3537 82.6488 79.3565C82.7596 79.3594 82.8434 79.3636 82.9002 79.3693V80.392C82.8661 80.3835 82.788 80.3707 82.6658 80.3537C82.5465 80.3338 82.4201 80.3239 82.2866 80.3239C81.9684 80.3239 81.6843 80.3906 81.4343 80.5241C81.1871 80.6548 80.9911 80.8366 80.8462 81.0696C80.7042 81.2997 80.6332 81.5625 80.6332 81.858V86H79.6275ZM86.0185 86.1534C85.6037 86.1534 85.2273 86.0753 84.8892 85.919C84.5511 85.7599 84.2827 85.5312 84.0838 85.233C83.8849 84.9318 83.7855 84.5682 83.7855 84.142C83.7855 83.767 83.8594 83.4631 84.0071 83.2301C84.1548 82.9943 84.3523 82.8097 84.5994 82.6761C84.8466 82.5426 85.1193 82.4432 85.4176 82.3778C85.7188 82.3097 86.0213 82.2557 86.3253 82.2159C86.723 82.1648 87.0455 82.1264 87.2926 82.1009C87.5426 82.0724 87.7244 82.0256 87.8381 81.9602C87.9545 81.8949 88.0128 81.7812 88.0128 81.6193V81.5852C88.0128 81.1648 87.8977 80.8381 87.6676 80.6051C87.4403 80.3722 87.0952 80.2557 86.6321 80.2557C86.152 80.2557 85.7756 80.3608 85.5028 80.571C85.2301 80.7812 85.0384 81.0057 84.9276 81.2443L83.973 80.9034C84.1435 80.5057 84.3707 80.196 84.6548 79.9744C84.9418 79.75 85.2543 79.5937 85.5923 79.5057C85.9332 79.4148 86.2685 79.3693 86.598 79.3693C86.8082 79.3693 87.0497 79.3949 87.3224 79.446C87.598 79.4943 87.8636 79.5952 88.1193 79.7486C88.3778 79.902 88.5923 80.1335 88.7628 80.4432C88.9332 80.7528 89.0185 81.1676 89.0185 81.6875V86H88.0128V85.1136H87.9616C87.8935 85.2557 87.7798 85.4077 87.6207 85.5696C87.4616 85.7315 87.25 85.8693 86.9858 85.983C86.7216 86.0966 86.3991 86.1534 86.0185 86.1534ZM86.1719 85.25C86.5696 85.25 86.9048 85.1719 87.1776 85.0156C87.4531 84.8594 87.6605 84.6577 87.7997 84.4105C87.9418 84.1634 88.0128 83.9034 88.0128 83.6307V82.7102C87.9702 82.7614 87.8764 82.8082 87.7315 82.8509C87.5895 82.8906 87.4247 82.9261 87.2372 82.9574C87.0526 82.9858 86.8722 83.0114 86.696 83.0341C86.5227 83.054 86.3821 83.071 86.2741 83.0852C86.0128 83.1193 85.7685 83.1747 85.5412 83.2514C85.3168 83.3253 85.1349 83.4375 84.9957 83.5881C84.8594 83.7358 84.7912 83.9375 84.7912 84.1932C84.7912 84.5426 84.9205 84.8068 85.179 84.9858C85.4403 85.1619 85.7713 85.25 86.1719 85.25ZM93.7006 79.4545V80.3068H90.3086V79.4545H93.7006ZM91.2972 77.8864H92.3029V84.125C92.3029 84.4091 92.3441 84.6222 92.4265 84.7642C92.5117 84.9034 92.6197 84.9972 92.7504 85.0455C92.8839 85.0909 93.0245 85.1136 93.1722 85.1136C93.283 85.1136 93.3739 85.108 93.445 85.0966C93.516 85.0824 93.5728 85.071 93.6154 85.0625L93.82 85.9659C93.7518 85.9915 93.6566 86.017 93.5344 86.0426C93.4123 86.071 93.2575 86.0852 93.07 86.0852C92.7859 86.0852 92.5075 86.0241 92.2347 85.902C91.9648 85.7798 91.7404 85.5938 91.5614 85.3438C91.3853 85.0938 91.2972 84.7784 91.2972 84.3977V77.8864ZM97.8874 86.1364C97.2567 86.1364 96.7127 85.9972 96.2553 85.7188C95.8008 85.4375 95.4499 85.0455 95.2028 84.5426C94.9585 84.0369 94.8363 83.4489 94.8363 82.7784C94.8363 82.108 94.9585 81.517 95.2028 81.0057C95.4499 80.4915 95.7937 80.0909 96.234 79.804C96.6772 79.5142 97.1942 79.3693 97.7852 79.3693C98.1261 79.3693 98.4627 79.4261 98.7951 79.5398C99.1275 79.6534 99.43 79.8381 99.7028 80.0938C99.9755 80.3466 100.193 80.6818 100.355 81.0994C100.517 81.517 100.598 82.0312 100.598 82.642V83.0682H95.5522V82.1989H99.5749C99.5749 81.8295 99.5011 81.5 99.3533 81.2102C99.2085 80.9205 99.0011 80.6918 98.7312 80.5241C98.4641 80.3565 98.1488 80.2727 97.7852 80.2727C97.3846 80.2727 97.038 80.3722 96.7454 80.571C96.4556 80.767 96.2326 81.0227 96.0763 81.3381C95.9201 81.6534 95.842 81.9915 95.842 82.3523V82.9318C95.842 83.4261 95.9272 83.8452 96.0977 84.1889C96.271 84.5298 96.511 84.7898 96.8178 84.9688C97.1246 85.1449 97.4812 85.233 97.8874 85.233C98.1516 85.233 98.3903 85.196 98.6033 85.1222C98.8192 85.0455 99.0053 84.9318 99.1616 84.7812C99.3178 84.6278 99.4386 84.4375 99.5238 84.2102L100.495 84.483C100.393 84.8125 100.221 85.1023 99.9798 85.3523C99.7383 85.5994 99.44 85.7926 99.0849 85.9318C98.7298 86.0682 98.3306 86.1364 97.8874 86.1364Z" fill="#E6007A"/>
</svg>
