<svg xmlns="http://www.w3.org/2000/svg" viewBox="0 0 171.63 125.33"><defs><style>.cls-1{fill:#e6007a;}.cls-2,.cls-3,.cls-4,.cls-5,.cls-6{fill:none;}.cls-2,.cls-3,.cls-4,.cls-5{stroke:#e6007a;stroke-linecap:round;stroke-linejoin:round;}.cls-2{stroke-dasharray:6 0;}.cls-3{stroke-dasharray:1 3;}.cls-4{stroke-dasharray:8 3;}.cls-5{stroke-width:3px;stroke-dasharray:1 6;}</style></defs><title>dg-transactions-new</title><g id="Layer_2" data-name="Layer 2"><g id="Layer_1-2" data-name="Layer 1"><g id="Layer_2-2" data-name="Layer 2"><g id="Layer_1-2-2" data-name="Layer 1-2"><circle class="cls-1" cx="5.61" cy="29.3" r="5.61"/><circle class="cls-1" cx="45.71" cy="29.3" r="2.81"/><circle class="cls-1" cx="85.82" cy="29.3" r="2.81"/><circle class="cls-1" cx="125.92" cy="29.3" r="2.81"/><circle class="cls-1" cx="166.02" cy="29.3" r="2.81"/><circle class="cls-1" cx="5.61" cy="52.48" r="2.81"/><circle class="cls-1" cx="45.71" cy="52.48" r="5.61"/><circle class="cls-1" cx="85.82" cy="52.48" r="5.61"/><circle class="cls-1" cx="125.92" cy="52.48" r="2.81"/><circle class="cls-1" cx="166.02" cy="52.48" r="5.61"/><circle class="cls-1" cx="5.61" cy="75.65" r="2.81"/><circle class="cls-1" cx="45.71" cy="75.65" r="2.81"/><circle class="cls-1" cx="85.82" cy="75.65" r="2.81"/><circle class="cls-1" cx="125.92" cy="75.65" r="5.61"/><circle class="cls-1" cx="166.02" cy="75.65" r="2.81"/><line class="cls-2" x1="5.61" y1="75.65" x2="166.02" y2="75.65"/><circle class="cls-1" cx="5.61" cy="98.83" r="2.81"/><circle class="cls-1" cx="45.71" cy="98.83" r="2.81"/><circle class="cls-1" cx="85.82" cy="98.83" r="2.81"/><circle class="cls-1" cx="125.92" cy="98.83" r="2.81"/><circle class="cls-1" cx="166.02" cy="98.83" r="2.81"/><line class="cls-3" x1="12.44" y1="29.56" x2="43.51" y2="29.56"/><line class="cls-3" x1="50.93" y1="29.56" x2="82" y2="29.56"/><line class="cls-3" x1="89.63" y1="29.56" x2="120.7" y2="29.56"/><line class="cls-3" x1="128.16" y1="29.56" x2="162.64" y2="29.56"/><line class="cls-4" x1="5.61" y1="52.48" x2="166.02" y2="52.48"/><line class="cls-5" x1="11.77" y1="98.83" x2="40.34" y2="98.83"/><line class="cls-5" x1="51.48" y1="98.83" x2="80.05" y2="98.83"/><line class="cls-5" x1="91.58" y1="98.83" x2="120.15" y2="98.83"/><line class="cls-5" x1="131.68" y1="98.83" x2="160.26" y2="98.83"/></g></g><g id="Layer_2-3" data-name="Layer 2"><g id="Layer_1-2-3" data-name="Layer 1-2"><rect class="cls-6" width="171.63" height="125.33"/></g></g></g></g></svg>