<svg width="80" height="80" viewBox="0 0 80 80" fill="none" xmlns="http://www.w3.org/2000/svg">
<path fill-rule="evenodd" clip-rule="evenodd" d="M15.1113 47.4698C15.1113 45.1584 16.9851 43.2847 19.2964 43.2847H28.9401C31.2514 43.2847 33.1252 45.1584 33.1252 47.4698V57.1134C33.1252 59.4249 31.2514 61.2985 28.9401 61.2985H19.2964C16.9851 61.2985 15.1113 59.4249 15.1113 57.1134V47.4698ZM19.2964 45.781C18.3638 45.781 17.6077 46.5371 17.6077 47.4698V57.1134C17.6077 58.0462 18.3638 58.8021 19.2964 58.8021H28.9401C29.8727 58.8021 30.6288 58.0462 30.6288 57.1134V47.4698C30.6288 46.5371 29.8727 45.781 28.9401 45.781H19.2964Z" fill="#5E1735"/>
<path fill-rule="evenodd" clip-rule="evenodd" d="M43.6074 47.4698C43.6074 45.1584 45.4812 43.2847 47.7925 43.2847H57.4362C59.7475 43.2847 61.6213 45.1584 61.6213 47.4698V57.1134C61.6213 59.4249 59.7475 61.2985 57.4362 61.2985H47.7925C45.4812 61.2985 43.6074 59.4249 43.6074 57.1134V47.4698ZM47.7925 45.781C46.8599 45.781 46.1038 46.5371 46.1038 47.4698V57.1134C46.1038 58.0462 46.8599 58.8021 47.7925 58.8021H57.4362C58.3689 58.8021 59.1249 58.0462 59.1249 57.1134V47.4698C59.1249 46.5371 58.3689 45.781 57.4362 45.781H47.7925Z" fill="#5E1735"/>
<path fill-rule="evenodd" clip-rule="evenodd" d="M43.6074 21.2967C43.6074 18.9852 45.4812 17.1116 47.7925 17.1116H57.4362C59.7475 17.1116 61.6213 18.9852 61.6213 21.2967V30.9403C61.6213 33.2517 59.7475 35.1254 57.4362 35.1254H47.7925C45.4812 35.1254 43.6074 33.2517 43.6074 30.9403V21.2967ZM47.7925 19.6079C46.8599 19.6079 46.1038 20.3639 46.1038 21.2967V30.9403C46.1038 31.8729 46.8599 32.629 47.7925 32.629H57.4362C58.3689 32.629 59.1249 31.8729 59.1249 30.9403V21.2967C59.1249 20.3639 58.3689 19.6079 57.4362 19.6079H47.7925Z" fill="#5E1735"/>
<path fill-rule="evenodd" clip-rule="evenodd" d="M38.8036 39.4419C32.0504 39.6331 25.4823 44.2613 25.4823 52.6726C25.4823 53.3213 24.9563 53.8473 24.3076 53.8473C23.6587 53.8473 23.1328 53.3213 23.1328 52.6726C23.1328 42.6963 31.0275 37.3117 38.7372 37.0934C42.6017 36.9839 46.5199 38.1554 49.4876 40.7549C52.4781 43.3742 54.408 47.3609 54.408 52.6726C54.408 53.3213 53.8821 53.8473 53.2332 53.8473C52.5845 53.8473 52.0585 53.3213 52.0585 52.6726C52.0585 47.9715 50.3727 44.6535 47.9396 42.5223C45.4837 40.3713 42.1705 39.3466 38.8036 39.4419Z" fill="#D32D79"/>
<path fill-rule="evenodd" clip-rule="evenodd" d="M29.8506 26.6226C27.3037 32.3951 25.5589 40.8475 25.5589 52.6712C25.5589 53.3605 25.0001 53.9194 24.3107 53.9194C23.6214 53.9194 23.0625 53.3605 23.0625 52.6712C23.0625 40.6277 24.8361 31.8034 27.5667 25.6149C30.2968 19.4271 34.0247 15.796 37.9506 14.3426C45.9736 11.3725 53.7052 17.706 53.7052 26.8406C53.7052 27.5301 53.1465 28.0888 52.457 28.0888C51.7677 28.0888 51.2088 27.5301 51.2088 26.8406C51.2088 19.0625 44.8673 14.4439 38.8173 16.6838C35.7065 17.8353 32.3978 20.8495 29.8506 26.6226Z" fill="#D32D79"/>
<path fill-rule="evenodd" clip-rule="evenodd" d="M34.6777 0.871662C44.4675 -0.463011 54.4016 1.92755 62.5125 7.57002C70.6233 13.2124 76.3194 21.695 78.4728 31.338C80.626 40.9809 79.0795 51.0809 74.1392 59.6376C73.8203 60.1899 73.1139 60.3792 72.5615 60.0603C72.0091 59.7414 71.8198 59.035 72.1388 58.4826C76.7895 50.4273 78.2454 40.9192 76.2183 31.8414C74.1913 22.7634 68.8289 14.7779 61.1934 9.46616C53.5578 4.1544 44.2058 1.9039 34.9897 3.16034C25.7734 4.41677 17.3652 9.08843 11.43 16.2503C5.49502 23.412 2.46582 32.5415 2.94261 41.8308C3.41953 51.12 7.36737 59.8914 14.0046 66.4078C20.6418 72.9242 29.4843 76.7104 38.7807 77.0165C47.5956 77.3069 56.209 74.4482 63.0893 68.9802C63.5886 68.5834 64.3151 68.6665 64.7119 69.1658C65.1088 69.6653 65.0258 70.3918 64.5264 70.7886C57.2178 76.5969 48.0682 79.6336 38.7046 79.3252C28.8296 79 19.4367 74.9781 12.3865 68.056C5.33605 61.134 1.14226 51.8166 0.635859 41.9491C0.129317 32.0817 3.34697 22.3839 9.65157 14.7763C15.9562 7.16879 24.8878 2.20623 34.6777 0.871662Z" fill="#B4AEAD"/>
<path d="M71.9219 59.0581C71.9219 58.3971 72.4576 57.8613 73.1185 57.8613C73.7796 57.8613 74.3153 58.3971 74.3153 59.0581C74.3153 59.719 73.7796 60.2548 73.1185 60.2548C72.4576 60.2548 71.9219 59.719 71.9219 59.0581Z" fill="#D32D79"/>
<path d="M53.7488 26.7031C53.7488 27.4173 53.1698 27.9965 52.4554 27.9965C51.7411 27.9965 51.1621 27.4173 51.1621 26.7031C51.1621 25.9888 51.7411 25.4097 52.4554 25.4097C53.1698 25.4097 53.7488 25.9888 53.7488 26.7031Z" fill="#B4AEAE"/>
</svg>
