<svg id="Layer_1" data-name="Layer 1" xmlns="http://www.w3.org/2000/svg" xmlns:xlink="http://www.w3.org/1999/xlink" viewBox="0 0 141.73 141.73"><defs><style>.cls-1{fill:#172026;}.cls-2{clip-path:url(#clip-path);}.cls-3{fill:#b7b8bb;}.cls-4{clip-path:url(#clip-path-2);}.cls-5{clip-path:url(#clip-path-3);}.cls-6{clip-path:url(#clip-path-4);}.cls-7{clip-path:url(#clip-path-5);}.cls-8{clip-path:url(#clip-path-6);}</style><clipPath id="clip-path"><circle class="cls-1" cx="70.87" cy="24.95" r="12.22"/></clipPath><clipPath id="clip-path-2"><circle class="cls-1" cx="70.87" cy="116.78" r="12.22"/></clipPath><clipPath id="clip-path-3"><circle class="cls-1" cx="110.63" cy="93.82" r="12.22"/></clipPath><clipPath id="clip-path-4"><circle class="cls-1" cx="31.1" cy="93.82" r="12.22"/></clipPath><clipPath id="clip-path-5"><circle class="cls-1" cx="110.63" cy="47.91" r="12.22"/></clipPath><clipPath id="clip-path-6"><circle class="cls-1" cx="31.1" cy="47.91" r="12.22"/></clipPath></defs><title>governance</title><circle class="cls-1" cx="70.87" cy="24.95" r="12.22"/><g class="cls-2"><circle class="cls-3" cx="70.87" cy="37.18" r="9.26"/></g><circle class="cls-3" cx="70.87" cy="22.53" r="4.08"/><circle class="cls-1" cx="70.87" cy="116.78" r="12.22"/><g class="cls-4"><circle class="cls-3" cx="70.87" cy="129" r="9.26"/></g><circle class="cls-3" cx="70.87" cy="114.36" r="4.08"/><circle class="cls-1" cx="110.63" cy="93.82" r="12.22"/><g class="cls-5"><circle class="cls-3" cx="110.63" cy="106.05" r="9.26"/></g><circle class="cls-3" cx="110.63" cy="91.4" r="4.08"/><circle class="cls-1" cx="31.1" cy="93.82" r="12.22"/><g class="cls-6"><circle class="cls-3" cx="31.1" cy="106.05" r="9.26"/></g><circle class="cls-3" cx="31.1" cy="91.4" r="4.08"/><circle class="cls-1" cx="110.63" cy="47.91" r="12.22"/><g class="cls-7"><circle class="cls-3" cx="110.63" cy="60.13" r="9.26"/></g><circle class="cls-3" cx="110.63" cy="45.48" r="4.08"/><circle class="cls-1" cx="31.1" cy="47.91" r="12.22"/><g class="cls-8"><circle class="cls-3" cx="31.1" cy="60.13" r="9.26"/></g><circle class="cls-3" cx="31.1" cy="45.48" r="4.08"/></svg>